<svg xmlns="http://www.w3.org/2000/svg" width="499" height="499" viewBox="0 0 499 499" fill="none"><metadata><rdf:RDF xmlns:rdf="http://www.w3.org/1999/02/22-rdf-syntax-ns#" xmlns:dc="http://purl.org/dc/elements/1.1/"><rdf:Description><dc:creator>RealFaviconGenerator</dc:creator><dc:source>https://realfavicongenerator.net</dc:source></rdf:Description></rdf:RDF></metadata><g clip-path="url(#clip0_1293_1895)">
<rect width="499" height="499" rx="8" fill="#0C0C0A"></rect>
<path fill-rule="evenodd" clip-rule="evenodd" d="M386.188 144.492C451.561 144.492 466.451 198.945 435.687 231.941C430.478 237.528 423.686 243.312 416.509 245.93C415.975 246.125 415.929 246.9 416.438 247.152C456.483 270.231 444.024 354.508 351.474 354.508H73.9206L114.636 311.816C122.526 303.601 133.433 298.957 144.834 298.957H354.64C360.607 298.957 366.305 296.481 370.37 292.121C377.258 284.733 372.01 273.008 361.9 273.008H50.1027C48.2213 273.008 47.2447 270.769 48.5264 269.394L163.885 145.667C164.584 144.918 165.562 144.492 166.587 144.492H386.188ZM187.199 199.922C186.174 199.922 185.195 200.347 184.497 201.096L162.556 224.322C162.006 224.911 162.425 225.87 163.231 225.87H366.046C372.012 225.87 377.711 223.394 381.776 219.034C388.663 211.647 383.415 199.922 373.306 199.922H187.199Z" fill="#D9D9D9"></path>
</g><defs>
<clipPath id="clip0_1293_1895">
<rect width="499" height="499" rx="8" fill="white"></rect>
</clipPath>
</defs></svg>