<svg xmlns="http://www.w3.org/2000/svg" width="120" height="120" fill="none" viewBox="0 0 120 120">
<g clip-path="url(#a)">
<rect width="120" height="120" fill="#0C0C0A" rx="8"/>
<path fill="#d9d9d9" fill-rule="evenodd" d="M92.871 34.748c15.721 0 19.302 13.095 11.903 21.03-1.252 1.343-2.886 2.734-4.612 3.364-.128.046-.139.233-.017.293 9.63 5.55 6.634 25.817-15.622 25.817H17.777l9.79-10.266a10.07 10.07 0 0 1 7.263-3.093h50.454a5.17 5.17 0 0 0 3.783-1.644c1.656-1.776.394-4.596-2.037-4.596H12.05a.517.517 0 0 1-.38-.869L39.412 35.03a.89.89 0 0 1 .65-.282zm-47.853 13.33a.9.9 0 0 0-.65.282l-5.276 5.585a.221.221 0 0 0 .162.373h48.773a5.17 5.17 0 0 0 3.783-1.645c1.656-1.776.394-4.596-2.037-4.596z" clip-rule="evenodd"/>
</g>
<defs>
<clipPath id="a">
<rect width="120" height="120" fill="#fff" rx="8"/>
</clipPath>
</defs>
</svg>